<svg xmlns="http://www.w3.org/2000/svg" xmlns:xlink="http://www.w3.org/1999/xlink" width="1080" zoomAndPan="magnify" viewBox="0 0 810 809.999993" height="1080" preserveAspectRatio="xMidYMid meet" version="1.0"><path fill="#4d6e66" d="M 401.839844 396.832031 L 75.238281 527.472656 L 75.238281 609.121094 L 401.839844 478.480469 Z M 401.839844 396.832031 " fill-opacity="1" fill-rule="nonzero"/><path fill="#233e42" d="M 401.839844 396.832031 L 728.4375 527.472656 L 728.4375 609.121094 L 401.839844 478.480469 Z M 401.839844 396.832031 " fill-opacity="1" fill-rule="nonzero"/><path fill="#b8c4b8" d="M 401.839844 478.480469 L 728.4375 609.121094 L 401.839844 739.757812 L 75.238281 609.121094 Z M 401.839844 478.480469 " fill-opacity="1" fill-rule="nonzero"/><path fill="#e8ede8" d="M 401.839844 396.832031 L 728.4375 527.472656 L 401.839844 658.109375 L 75.238281 527.472656 Z M 401.839844 396.832031 " fill-opacity="0.85" fill-rule="nonzero"/><path fill="#2e4f54" d="M 75.238281 527.472656 L 401.839844 658.109375 L 401.839844 739.757812 L 75.238281 609.121094 Z M 75.238281 527.472656 " fill-opacity="1" fill-rule="nonzero"/><path fill="#628a81" d="M 401.839844 658.109375 L 728.4375 527.472656 L 728.4375 609.121094 L 401.839844 739.757812 Z M 401.839844 658.109375 " fill-opacity="1" fill-rule="nonzero"/><path fill="#52706d" d="M 401.839844 233.535156 L 75.238281 364.171875 L 75.238281 445.820312 L 401.839844 315.183594 Z M 401.839844 233.535156 " fill-opacity="1" fill-rule="nonzero"/><path fill="#1f384d" d="M 401.839844 233.535156 L 728.4375 364.171875 L 728.4375 445.820312 L 401.839844 315.183594 Z M 401.839844 233.535156 " fill-opacity="1" fill-rule="nonzero"/><path fill="#b5c2d1" d="M 401.839844 315.183594 L 728.4375 445.820312 L 401.839844 576.460938 L 75.238281 445.820312 Z M 401.839844 315.183594 " fill-opacity="1" fill-rule="nonzero"/><path fill="#e5eaf0" d="M 401.839844 233.535156 L 728.4375 364.171875 L 401.839844 494.8125 L 75.238281 364.171875 Z M 401.839844 233.535156 " fill-opacity="0.85" fill-rule="nonzero"/><path fill="#2a4964" d="M 75.238281 364.171875 L 401.839844 494.8125 L 401.839844 576.460938 L 75.238281 445.820312 Z M 75.238281 364.171875 " fill-opacity="1" fill-rule="nonzero"/><path fill="#698b87" d="M 401.839844 494.8125 L 728.4375 364.171875 L 728.4375 445.820312 L 401.839844 576.460938 Z M 401.839844 494.8125 " fill-opacity="1" fill-rule="nonzero"/><path fill="#2b4161" d="M 401.839844 70.234375 L 75.238281 200.875 L 75.238281 282.523438 L 401.839844 151.882812 Z M 401.839844 70.234375 " fill-opacity="1" fill-rule="nonzero"/><path fill="#1d304a" d="M 401.839844 70.234375 L 728.4375 200.875 L 728.4375 282.523438 L 401.839844 151.882812 Z M 401.839844 70.234375 " fill-opacity="1" fill-rule="nonzero"/><path fill="#3d567a" d="M 401.839844 151.882812 L 728.4375 282.523438 L 401.839844 413.160156 L 75.238281 282.523438 Z M 401.839844 151.882812 " fill-opacity="1" fill-rule="nonzero"/><path fill="#4f6a90" d="M 401.839844 70.234375 L 728.4375 200.875 L 401.839844 331.511719 L 75.238281 200.875 Z M 401.839844 70.234375 " fill-opacity="0.85" fill-rule="nonzero"/><path fill="#263e5e" d="M 75.238281 200.875 L 401.839844 331.511719 L 401.839844 413.160156 L 75.238281 282.523438 Z M 75.238281 200.875 " fill-opacity="1" fill-rule="nonzero"/><path fill="#365074" d="M 401.839844 331.511719 L 728.4375 200.875 L 728.4375 282.523438 L 401.839844 413.160156 Z M 401.839844 331.511719 " fill-opacity="1" fill-rule="nonzero"/></svg>
