<svg xmlns="http://www.w3.org/2000/svg" xmlns:xlink="http://www.w3.org/1999/xlink" width="1080" zoomAndPan="magnify" viewBox="0 0 810 809.999993" height="1080" preserveAspectRatio="xMidYMid meet" version="1.0"><path fill="#4d6e66" d="M 405 395.011719 L 93.398438 519.652344 L 93.398438 597.554688 L 405 472.914062 Z M 405 395.011719 " fill-opacity="1" fill-rule="nonzero"/><path fill="#233e42" d="M 405 395.011719 L 716.597656 519.652344 L 716.597656 597.554688 L 405 472.914062 Z M 405 395.011719 " fill-opacity="1" fill-rule="nonzero"/><path fill="#e8ede8" d="M 405 395.011719 L 716.597656 519.652344 L 405 644.296875 L 93.398438 519.652344 Z M 405 395.011719 " fill-opacity="0.85" fill-rule="nonzero"/><path fill="#2e4f54" d="M 93.398438 519.652344 L 405 644.296875 L 405 722.199219 L 93.398438 597.554688 Z M 93.398438 519.652344 " fill-opacity="1" fill-rule="nonzero"/><path fill="#628a81" d="M 405 644.296875 L 716.597656 519.652344 L 716.597656 597.554688 L 405 722.199219 Z M 405 644.296875 " fill-opacity="1" fill-rule="nonzero"/><path fill="#52706d" d="M 405 239.207031 L 93.398438 363.851562 L 93.398438 441.753906 L 405 317.109375 Z M 405 239.207031 " fill-opacity="1" fill-rule="nonzero"/><path fill="#1f384d" d="M 405 239.207031 L 716.597656 363.851562 L 716.597656 441.753906 L 405 317.109375 Z M 405 239.207031 " fill-opacity="1" fill-rule="nonzero"/><path fill="#e5eaf0" d="M 405 239.207031 L 716.597656 363.851562 L 405 488.492188 L 93.398438 363.851562 Z M 405 239.207031 " fill-opacity="0.85" fill-rule="nonzero"/><path fill="#2a4964" d="M 93.398438 363.851562 L 405 488.492188 L 405 566.394531 L 93.398438 441.753906 Z M 93.398438 363.851562 " fill-opacity="1" fill-rule="nonzero"/><path fill="#698b87" d="M 405 488.492188 L 716.597656 363.851562 L 716.597656 441.753906 L 405 566.394531 Z M 405 488.492188 " fill-opacity="1" fill-rule="nonzero"/><path fill="#2b4161" d="M 405 83.402344 L 93.398438 208.046875 L 93.398438 285.949219 L 405 161.304688 Z M 405 83.402344 " fill-opacity="1" fill-rule="nonzero"/><path fill="#1d304a" d="M 405 83.402344 L 716.597656 208.046875 L 716.597656 285.949219 L 405 161.304688 Z M 405 83.402344 " fill-opacity="1" fill-rule="nonzero"/><path fill="#4f6a90" d="M 405 83.402344 L 716.597656 208.046875 L 405 332.6875 L 93.398438 208.046875 Z M 405 83.402344 " fill-opacity="0.85" fill-rule="nonzero"/><path fill="#263e5e" d="M 93.398438 208.046875 L 405 332.6875 L 405 410.589844 L 93.398438 285.949219 Z M 93.398438 208.046875 " fill-opacity="1" fill-rule="nonzero"/><path fill="#365074" d="M 405 332.6875 L 716.597656 208.046875 L 716.597656 285.949219 L 405 410.589844 Z M 405 332.6875 " fill-opacity="1" fill-rule="nonzero"/></svg>
